HIERARCHY
ROOT Hips
{
    OFFSET 0.000000 0.000000 0.000000
    CHANNELS 6 Xposition Yposition Zposition Zrotation Xrotation Yrotation
        JOINT Chest
        {
            OFFSET -0.000000 26.747992 -0.000000
            CHANNELS 3 Zrotation Xrotation Yrotation
            JOINT Neck
            {
                OFFSET -0.000000 19.168715 0.000000
                CHANNELS 3 Zrotation Xrotation Yrotation
                JOINT Head
                {
                    OFFSET -0.000000 10.083335 0.000000
                    CHANNELS 3 Zrotation Xrotation Yrotation
                    End Site
                    {
                        OFFSET -0.000000 15.583343 0.000000
                    }
                }
            }
            JOINT LeftCollar
            {
                OFFSET -0.000000 19.168715 0.000000
                CHANNELS 3 Zrotation Xrotation Yrotation
                JOINT LeftShoulder
                {
                    OFFSET 19.500000 -0.000000 0.000000
                    CHANNELS 3 Zrotation Xrotation Yrotation
                    JOINT LeftElbow
                    {
                        OFFSET 19.022890 0.000000 0.000000
                        CHANNELS 3 Zrotation Xrotation Yrotation
                        JOINT LeftWrist
                        {
                            OFFSET 24.768559 0.000000 0.000000
                            CHANNELS 3 Zrotation Xrotation Yrotation
                            End Site
                            {
                                OFFSET 0.000000 -13.750003 0.000000
                            }
                        }
                    }
                }
            }
            JOINT RightCollar
            {
                OFFSET -0.000000 19.168715 0.000000
                CHANNELS 3 Zrotation Xrotation Yrotation
                JOINT RightShoulder
                {
                    OFFSET -19.500000 0.000000 0.000000
                    CHANNELS 3 Zrotation Xrotation Yrotation
                    JOINT RightElbow
                    {
                        OFFSET -19.022890 0.000000 0.000000
                        CHANNELS 3 Zrotation Xrotation Yrotation
                        JOINT RightWrist
                        {
                            OFFSET -24.768559 0.000000 0.000000
                            CHANNELS 3 Zrotation Xrotation Yrotation
                            End Site
                            {
                                OFFSET -0.000000 -13.750003 0.000000
                            }
                        }
                    }
                }
            }
        }
    JOINT LeftHip
    {
        OFFSET 11.000002 0.000000 0.000000
        CHANNELS 3 Zrotation Xrotation Yrotation
        JOINT LeftKnee
        {
            OFFSET -0.000000 -39.837296 0.000000
            CHANNELS 3 Zrotation Xrotation Yrotation
            JOINT LeftAnkle
            {
                OFFSET -0.000000 -38.248398 0.000000
                CHANNELS 3 Zrotation Xrotation Yrotation
                End Site
                {
                    OFFSET -0.000000 -4.583334 15.583343
                }
            }
        }
    }
    JOINT RightHip
    {
        OFFSET -11.000002 0.000000 0.000000
        CHANNELS 3 Zrotation Xrotation Yrotation
        JOINT RightKnee
        {
            OFFSET -0.000000 -39.837296 0.000000
            CHANNELS 3 Zrotation Xrotation Yrotation
            JOINT RightAnkle
            {
                OFFSET -0.000000 -38.248398 0.000000
                CHANNELS 3 Zrotation Xrotation Yrotation
                End Site
                {
                    OFFSET -0.000000 -4.583334 15.583343
                }
            }
        }
    }
}
MOTION
Frames:    13
Frame Time:    0.010000
8.838063    82.164207    -39.403534    1.934345    0.247745    -72.265343    1.685199    6.618403    1.834144    1.699760    -3.559189    18.615215    -0.700076    -22.221952    18.161791    -23.004919    -2.408733    11.892736    0.923644    38.485012    -52.925137    -4.247619    3.926735    -84.922867    135.896835    -7.169253    54.894680    19.378080    0.187522    1.214128    41.243778    12.400833    0.957539    36.909889    21.702959    59.807362    -97.108322    -46.637512    35.801319    16.126312    -14.567505    11.376102    -1.356133    39.995590    14.924574    -16.395264    -13.429870    -2.773100    -8.643960    -19.258179    -7.063283    -8.374173    39.528919    -5.743662    10.888787    -18.676620    9.207606    
9.030922    81.389343    -39.433556    1.409658    0.387659    -72.405594    2.093403    6.775583    2.044137    1.235021    -1.797922    18.041658    -2.495949    -24.385246    17.485870    -23.634220    -2.335176    10.223944    -0.030801    38.322060    -51.606850    -5.049758    5.282050    -84.793625    137.057617    -7.593572    54.560879    19.700735    0.173431    0.807981    41.100090    12.375244    0.574213    35.851097    20.669252    59.555359    -91.775101    -46.827957    39.328262    16.566713    -15.078415    11.826886    -0.724113    41.827869    13.692934    -16.345575    -15.019956    -2.302715    -8.473619    -20.172421    -6.225061    -8.155640    41.918995    -5.136605    9.807398    -19.748341    8.093543    
9.167295    81.073250    -39.395298    1.392732    0.718306    -72.813805    2.333243    6.594446    2.697617    1.380524    -0.797236    18.212318    -2.858120    -25.525625    17.554785    -24.364716    -2.291337    9.816917    -1.588577    37.118526    -49.811123    -6.366282    6.925223    -84.495193    137.098785    -8.983734    53.441006    19.882154    0.148189    0.921377    41.204536    12.556551    0.138220    35.046150    20.330256    60.285957    -94.912506    -46.518391    35.930565    16.768948    -15.462677    12.166176    0.025307    42.462780    13.036044    -16.705341    -15.495192    -2.277308    -8.280362    -21.240393    -6.848411    -8.863310    43.231976    -3.214420    9.820259    -19.897682    7.314337    
9.259934    80.783867    -39.374977    1.237994    0.819592    -73.029289    2.490340    6.664237    3.050337    1.302502    -0.017852    18.122011    -3.156296    -26.442797    17.380053    -24.815002    -2.200248    9.242065    -2.278673    36.646393    -49.034382    -7.398295    7.627277    -84.194397    136.632019    -10.239348    52.187313    19.988369    0.130026    0.827863    41.226063    12.546608    -0.142967    34.301609    20.010975    60.564289    -95.181412    -46.536114    35.118793    16.842382    -15.673389    12.312851    0.496707    43.115086    12.563426    -16.882418    -16.047812    -2.137547    -8.248124    -21.838268    -7.114409    -9.275462    44.283073    -2.079671    9.651749    -20.202028    6.869386    
9.342672    80.522186    -39.341038    1.069397    0.873347    -73.265099    2.583447    6.818563    3.436805    1.330909    0.646461    18.126312    -3.466873    -27.290642    17.291708    -25.241539    -2.128011    8.883807    -2.831827    36.181606    -48.476887    -8.250429    8.185897    -83.861702    136.151886    -11.355223    51.029541    20.079605    0.151152    0.857036    41.287735    12.488474    -0.440790    33.602448    19.707102    60.833076    -95.502121    -46.556087    34.325684    16.822550    -15.819747    12.371502    0.963058    43.705944    12.187228    -17.077620    -16.554739    -1.988539    -8.283296    -22.380194    -7.556105    -9.827071    45.244598    -0.798230    9.552667    -20.445587    6.551969    
9.405334    80.317215    -39.291351    0.887371    0.857861    -73.504234    2.619951    7.046771    3.823673    1.373037    1.230139    18.122723    -3.779776    -28.093060    17.191433    -25.627142    -2.073990    8.583607    -3.221249    35.906109    -48.155792    -8.900715    8.545313    -83.534225    135.650192    -12.294792    49.999992    20.143883    0.132325    0.848931    41.368496    12.394948    -0.781690    32.897945    19.408546    61.211880    -95.838608    -46.550903    33.599678    16.681713    -15.864070    12.299981    1.370522    44.173264    11.973929    -17.278206    -16.960016    -1.833334    -8.407296    -22.791468    -8.181711    -10.494078    46.002327    0.553732    9.536105    -20.584459    6.415030    
9.440286    80.195053    -39.225601    0.694834    0.760810    -73.728348    2.588423    7.345882    4.177860    1.434934    1.683798    18.116777    -4.079092    -28.783464    17.090626    -25.939476    -2.026740    8.385984    -3.407543    35.857830    -48.119553    -9.318460    8.672578    -83.247086    135.157532    -13.007316    49.164452    20.172798    0.152526    0.802967    41.470242    12.174121    -1.161875    32.352058    19.235296    61.496616    -96.311440    -46.615044    32.977940    16.407747    -15.777997    12.066266    1.664257    44.461082    11.979503    -17.471628    -17.208847    -1.676518    -8.630386    -23.009693    -8.973277    -11.217948    46.459408    1.880513    9.598646    -20.581121    6.478960    
9.443709    80.176170    -39.145458    0.499319    0.582096    -73.921272    2.488311    7.698908    4.470028    1.516356    1.975445    18.110922    -4.350534    -29.308958    16.998880    -26.148794    -1.994228    8.320727    -3.367183    36.070576    -48.401096    -9.465175    8.532994    -83.019455    134.687454    -13.463739    48.579689    20.160921    0.124390    0.713417    41.588490    11.931473    -1.586329    31.894178    19.123112    61.853710    -96.734131    -46.686993    32.590935    16.008369    -15.547098    11.654823    1.796001    44.523785    12.242284    -17.643690    -17.250723    -1.523657    -8.947974    -22.995249    -9.885138    -11.910445    46.549568    3.071394    9.723170    -20.407112    6.732914    
9.416058    80.273376    -39.054371    0.313726    0.333971    -74.072060    2.327688    8.077064    4.680560    1.622053    2.084522    18.115259    -4.584084    -29.624683    16.932018    -26.234247    -1.978518    8.421262    -3.084012    36.545422    -49.006794    -9.315492    8.141662    -82.868790    134.262985    -13.645498    48.299740    20.103518    0.123739    0.585134    41.718426    11.607738    -2.046698    31.670063    19.176878    62.076511    -97.205116    -46.845791    32.443954    15.511651    -15.173447    11.072407    1.733271    44.330212    12.774455    -17.779633    -17.044367    -1.380651    -9.339723    -22.737206    -10.847239    -12.471146    46.245052    4.015668    9.885263    -20.045811    7.140612    
9.361735    80.491219    -38.957127    0.156298    0.038977    -74.177322    2.123566    8.440234    4.802459    1.746452    2.014380    18.131342    -4.772755    -29.708141    16.895651    -26.182775    -2.010786    8.694925    -2.540328    37.300587    -49.944695    -8.872808    7.477635    -82.781418    133.895752    -13.573541    48.344826    19.999722    0.088569    0.413939    41.844032    11.304818    -2.535773    31.616732    19.324995    62.297722    -97.569771    -47.025242    32.605736    14.962790    -14.676211    10.352284    1.467005    43.865906    13.554909    -17.869226    -16.561749    -1.253188    -9.771698    -22.254213    -11.772024    -12.810805    45.555161    4.623714    10.060961    -19.493420    7.645286    
9.288183    80.827293    -38.859123    0.049862    -0.273801    -74.241493    1.895268    8.746672    4.841057    1.889167    1.767470    18.165361    -4.910233    -29.541519    16.899582    -25.999096    -2.054172    9.146803    -1.741751    38.266651    -51.160172    -8.189709    6.655870    -82.774216    133.636139    -13.256440    48.724693    19.846722    0.067957    0.207102    41.955585    10.997666    -3.043220    31.838482    19.619371    62.362835    -97.901573    -47.272442    33.047085    14.417781    -14.089595    9.556355    1.015404    43.132118    14.525599    -17.911291    -15.787663    -1.146947    -10.201628    -21.589712    -12.560658    -12.865968    44.515526    4.833214    10.233690    -18.755001    8.178183    
9.204749    81.273636    -38.765213    0.019946    -0.573835    -74.275810    1.662211    8.957870    4.811192    2.046479    1.345666    18.217894    -4.990025    -29.114134    16.945753    -25.689207    -2.117815    9.758627    -0.697752    39.391823    -52.633080    -7.290953    5.673552    -82.817932    133.431488    -12.747715    49.382751    19.639318    0.023407    -0.032480    42.046906    10.757106    -3.553175    32.267006    20.007734    62.347977    -98.036575    -47.523045    33.807285    13.933595    -13.458352    8.770514    0.420626    42.144234    15.598423    -17.916203    -14.718070    -1.069067    -10.587429    -20.804096    -13.111278    -12.604428    43.175068    4.601447    10.398081    -17.838774    8.675700    
9.121413    81.816528    -38.678768    0.090201    -0.834239    -74.294960    1.440127    9.043320    4.732380    2.214267    0.753542    18.285675    -5.007270    -28.425493    17.031649    -25.268089    -2.203416    10.493782    0.541956    40.607628    -54.282627    -6.241528    4.613836    -82.905945    133.309052    -12.068806    50.279484    19.372597    -0.020055    -0.299801    42.119148    10.571107    -4.050045    32.931931    20.503143    62.156235    -98.016937    -47.802013    34.820251    13.557098    -12.832131    8.090903    -0.259383    40.933586    16.671345    -17.907146    -13.363141    -1.028646    -10.896070    -19.965506    -13.334655    -12.030120    41.588589    3.902179    10.558065    -16.755362    9.095107    
